<svg xmlns="http://www.w3.org/2000/svg" width="26" height="26" fill="none"><path stroke="#E5C348" stroke-linecap="round" stroke-linejoin="round" stroke-width="2" d="M9.4 1H2.2A1.2 1.2 0 0 0 1 2.2v7.2a1.2 1.2 0 0 0 1.2 1.2h7.2a1.2 1.2 0 0 0 1.2-1.2V2.2A1.2 1.2 0 0 0 9.4 1Zm0 14.4H2.2A1.2 1.2 0 0 0 1 16.6v7.2A1.2 1.2 0 0 0 2.2 25h7.2a1.2 1.2 0 0 0 1.2-1.2v-7.2a1.2 1.2 0 0 0-1.2-1.2ZM23.8 1h-7.2a1.2 1.2 0 0 0-1.2 1.2v7.2a1.2 1.2 0 0 0 1.2 1.2h7.2A1.2 1.2 0 0 0 25 9.4V2.2A1.2 1.2 0 0 0 23.8 1Zm-8.4 14.4v4.8m0 4.8h4.8v-9.6m0 2.4H25m0 4.8V25"/></svg>